#define xreduce_width 48
#define xreduce_height 48
static char xreduce_bits[] = {
   0x00, 0x00, 0x00, 0x00, 0x00, 0x00, 0x04, 0x00, 0x00, 0x00, 0x00, 0x00,
   0x17, 0x00, 0x00, 0x00, 0x00, 0x00, 0x0f, 0x00, 0x00, 0x00, 0x00, 0x00,
   0xf7, 0x00, 0x00, 0x00, 0x00, 0x00, 0xdd, 0x01, 0x00, 0x10, 0x00, 0x00,
   0xfd, 0x01, 0x00, 0x70, 0x00, 0x00, 0xab, 0x05, 0x00, 0x18, 0x00, 0x00,
   0x6e, 0x0e, 0x00, 0x08, 0x00, 0x00, 0xdc, 0x0c, 0x00, 0x08, 0x00, 0x00,
   0xbc, 0x09, 0x20, 0x08, 0x00, 0x00, 0x78, 0x12, 0x22, 0x04, 0x20, 0x00,
   0xec, 0x6f, 0x34, 0x08, 0x20, 0x00, 0xc8, 0x7d, 0x14, 0x08, 0x30, 0x00,
   0x30, 0xb3, 0x18, 0x08, 0x0a, 0x00, 0x70, 0x6f, 0x38, 0x2c, 0x05, 0x00,
   0xe0, 0xde, 0x69, 0xfb, 0x01, 0x00, 0xe0, 0xfd, 0x89, 0x3c, 0x00, 0x00,
   0xc0, 0x7b, 0x9f, 0x2f, 0x00, 0x00, 0x80, 0xef, 0xcb, 0x27, 0x10, 0x00,
   0x00, 0xef, 0x33, 0x17, 0x08, 0x00, 0x00, 0xdc, 0x56, 0x1c, 0x04, 0x00,
   0x00, 0x78, 0x76, 0x18, 0x0d, 0x00, 0x00, 0x18, 0xcb, 0xca, 0x3f, 0x00,
   0x00, 0xe0, 0xa1, 0xa5, 0x00, 0x00, 0x00, 0x68, 0xc6, 0x5e, 0x00, 0x00,
   0x00, 0x5a, 0x0d, 0x05, 0x00, 0x00, 0x80, 0x77, 0x1a, 0xb0, 0x01, 0x00,
   0x80, 0x31, 0x64, 0x98, 0x05, 0x00, 0xc0, 0x70, 0x98, 0xbd, 0x0f, 0x00,
   0x52, 0xd8, 0xa0, 0x74, 0x77, 0x00, 0x3d, 0x94, 0x80, 0xf2, 0x6f, 0x00,
   0x02, 0x64, 0x03, 0xd5, 0xcd, 0x01, 0x00, 0x82, 0xd4, 0xb4, 0x2d, 0x06,
   0x00, 0x16, 0x7b, 0x73, 0x3b, 0x0a, 0x00, 0x14, 0x2c, 0x62, 0xe6, 0x0f,
   0x00, 0x04, 0x70, 0x61, 0xde, 0x31, 0x00, 0xf8, 0x88, 0x83, 0x3d, 0x73,
   0x00, 0x18, 0x84, 0x80, 0x7b, 0x4e, 0x00, 0xf0, 0x47, 0x01, 0xf4, 0xf4,
   0x00, 0x80, 0xc0, 0x00, 0xcc, 0x7d, 0x00, 0x00, 0x40, 0x00, 0xd8, 0x3f,
   0x00, 0x00, 0x40, 0x00, 0xe0, 0x39, 0x00, 0x00, 0x30, 0x00, 0x00, 0x00,
   0x00, 0x00, 0x10, 0x00, 0x00, 0x00, 0x00, 0x00, 0x10, 0x00, 0x00, 0x00,
   0x00, 0x00, 0x18, 0x00, 0x00, 0x00, 0x00, 0x00, 0x30, 0x00, 0x00, 0x00};
