/* XPM */
static char * csl_xpm[] = {
"32 32 3 1",
" 	c None",
".	c #F60A1A",
"+	c #000000",
"                                ",
"                           ..   ",
"                           ..   ",
"         ++++++++++     ........",
"       +++++++++++++++  ........",
"     ++++++++++++++++++    ..   ",
"   ++++++++++++ +++++++    ..   ",
"   +++++++          +++    ..   ",
"  ++++++      +++    ++         ",
"  +++++    +++++++++            ",
" +++++    +++++  +++            ",
" +++++    ++      ++ ++++++     ",
" +++++    ++          ++++      ",
" +++++    ++          ++++      ",
" +++++    ++++        ++++      ",
" +++++    +++++++++   ++++      ",
" +++++       +++++++  ++++      ",
" +++++  ++        ++  ++++      ",
"  ++++  +++       ++  ++++   +  ",
"  ++++   ++       ++  ++++++++  ",
"  +++++  +++     +++  ++++++++  ",
"  +++++   +++++++++             ",
"   +++++   ++++++     ++        ",
"   +++++             ++++       ",
"   ++++++           +++++       ",
"    +++++++       +++++++       ",
"     +++++++++  +++++++++       ",
"      ++++++++++++++++++        ",
"       ++++++++++++++++         ",
"       +++++++++++++++          ",
"           ++++++++             ",
"                                "};
