/* XPM */
static char * fwin_xpm[] = {
"32 32 4 1",
" 	c None",
".	c #000000",
"+	c #F8EA0C",
"@	c #241CC4",
"............................    ",
" ...........................    ",
"  ..........................    ",
"  ....                   ...    ",
"++....++++++++++++++++++++..++++",
"++....+++++++++++++++++++++.++++",
"++....++++++++++++++++++++++++++",
"++....++++++++++++++++++++++++++",
"  ....                          ",
"  ....                          ",
"  ....          ..              ",
"++....+++++++++...++++++++++++++",
"++................++++++++++++++",
"++................++++++++++++++",
"++................++++++++++++++",
"  ....         ...              ",
"  ....          ..              ",
"  ....   @@@@@@@@@@@@@@@@@@@@@@@",
"++....+++@@@@@@@@@@@@@@@@@@@@@@@",
"++....+++@@++++++++@@@++++++++@@",
"++....+++@@++++++++@@@++++++++@@",
"++....+++@@@@@@@@@@@@@@@@@@@@@@@",
"  ....   @@@@@@@@@@@@@@@@@@@@@@@",
"  ....   @@        @@@        @@",
"  ....   @@        @@@        @@",
"++....+++@@++++++++@@@++++++++@@",
"++....+++@@++++++++@@@++++++++@@",
"++....+++@@++++++++@@@++++++++@@",
"++....+++@@++++++++@@@++++++++@@",
" ......  @@@@@@@@@@@@@@@@@@@@@@@",
"........ @@@@@@@@@@@@@@@@@@@@@@@",
"........                        "};
