/* XPM */
static char * reduce_xpm[] = {
"32 32 4 1",
" 	c None",
".	c #000000",
"+	c #C0C0C0",
"@	c #FFFF00",
"                       .     .  ",
"                       .     .  ",
"                     ..... .....",
"                       .     .  ",
"          ..           .     .  ",
"          ..       ..           ",
"          ..       ..           ",
"           .       ..           ",
"           ...   ...            ",
"             .   .              ",
" ........    .....    .......   ",
"...++++++.. ..@@@.....++++++..  ",
".++.+++++++..@@@@@@..++++++.+.. ",
".+++.....+++..@@@..+++++....++. ",
".++.+++++++++..@@.++....++++++. ",
".+++....++++..@......+++++.++.. ",
".++++++++++..@@@@@@@.++...++..  ",
" ..++++++...@@@@@@@@.++++++..   ",
" ............@@@@@...........   ",
" .+++++++.@...........++++++..  ",
" .+++++++.@@@....@@@@.+++++++.  ",
" .+++..+..@@@@@@@@@@@.++++.++.. ",
" .++..++........@@@@...+++..++. ",
" .+..+++.@@..............++.+++.",
" .++++...@@@@@@.......  .++++++.",
" ...... .@@@@@@@@@@@@.  ..+++...",
"         .....@@@@@@@.   .....  ",
"          ............          ",
"           ..@@......           ",
"            ..@@@@@.            ",
"             ......             ",
"               ..               "};
